<?xml version="1.0" encoding="utf-8"?>
<!-- Generator: Adobe Illustrator 16.0.0, SVG Export Plug-In . SVG Version: 6.00 Build 0)  -->
<!DOCTYPE svg PUBLIC "-//W3C//DTD SVG 1.1//EN" "http://www.w3.org/Graphics/SVG/1.1/DTD/svg11.dtd">
<svg version="1.1"
	 id="svg13642" inkscape:export-ydpi="96" inkscape:export-xdpi="96" xmlns:sodipodi="http://sodipodi.sourceforge.net/DTD/sodipodi-0.dtd" xmlns:dc="http://purl.org/dc/elements/1.1/" xmlns:cc="http://creativecommons.org/ns#" xmlns:rdf="http://www.w3.org/1999/02/22-rdf-syntax-ns#" xmlns:svg="http://www.w3.org/2000/svg" xmlns:inkscape="http://www.inkscape.org/namespaces/inkscape" inkscape:version="0.92.5 (2060ec1f9f, 2020-04-08)" inkscape:export-filename="/home/lzehl/Pictures/openMINDS_logos/openMINDS/light_openMINDS-logo.png" sodipodi:docname="light_openMINDS-logo.svg"
	 xmlns="http://www.w3.org/2000/svg" xmlns:xlink="http://www.w3.org/1999/xlink" x="0px" y="0px" width="1280px" height="640px"
	 viewBox="0 0 1280 640" enable-background="new 0 0 1280 640" xml:space="preserve">
<title  id="title848">openMINDS-logo</title>
<defs>
	
	
		<inkscape:path-effect  weight="33.333333" lpeversion="0" apply_no_weight="true" steps="2" is_visible="true" effect="bspline" only_selected="false" helper_size="0" id="path-effect22683" apply_with_weight="true">
		</inkscape:path-effect>
	
		<inkscape:path-effect  weight="33.333333" lpeversion="0" apply_no_weight="true" steps="2" is_visible="true" effect="bspline" only_selected="false" helper_size="0" id="path-effect22687" apply_with_weight="true">
		</inkscape:path-effect>
	
		<inkscape:path-effect  weight="33.333333" lpeversion="0" apply_no_weight="true" steps="2" is_visible="true" effect="bspline" only_selected="false" helper_size="0" id="path-effect22689" apply_with_weight="true">
		</inkscape:path-effect>
	
		<inkscape:path-effect  weight="33.333333" lpeversion="0" apply_no_weight="true" steps="2" is_visible="true" effect="bspline" only_selected="false" helper_size="0" id="path-effect22691" apply_with_weight="true">
		</inkscape:path-effect>
	
		<inkscape:path-effect  weight="33.333333" lpeversion="0" apply_no_weight="true" steps="2" is_visible="true" effect="bspline" only_selected="false" helper_size="0" id="path-effect22693" apply_with_weight="true">
		</inkscape:path-effect>
	
		<inkscape:path-effect  weight="33.333333" lpeversion="0" apply_no_weight="true" steps="2" is_visible="true" effect="bspline" only_selected="false" helper_size="0" id="path-effect22695" apply_with_weight="true">
		</inkscape:path-effect>
	
		<inkscape:path-effect  weight="33.333333" lpeversion="0" apply_no_weight="true" steps="2" is_visible="true" effect="bspline" only_selected="false" helper_size="0" id="path-effect22697" apply_with_weight="true">
		</inkscape:path-effect>
	
		<inkscape:path-effect  weight="33.333333" lpeversion="0" apply_no_weight="true" steps="2" is_visible="true" effect="bspline" only_selected="false" helper_size="0" id="path-effect22699" apply_with_weight="true">
		</inkscape:path-effect>
	
		<inkscape:path-effect  weight="33.333333" lpeversion="0" apply_no_weight="true" steps="2" is_visible="true" effect="bspline" only_selected="false" helper_size="0" id="path-effect22701" apply_with_weight="true">
		</inkscape:path-effect>
	
		<inkscape:path-effect  weight="33.333333" apply_no_weight="true" steps="2" is_visible="true" effect="bspline" only_selected="false" helper_size="0" id="path-effect1192-2-82-04-8-9-1-8-6-7-7" apply_with_weight="true">
		</inkscape:path-effect>
	
		<inkscape:path-effect  weight="33.333333" apply_no_weight="true" steps="2" is_visible="true" effect="bspline" only_selected="false" helper_size="0" id="path-effect1192-2-82-04-8-9-1-8-68-7" apply_with_weight="true">
		</inkscape:path-effect>
	
		<inkscape:path-effect  weight="33.333333" apply_no_weight="true" steps="2" is_visible="true" effect="bspline" only_selected="false" helper_size="0" id="path-effect1200-8-8-45-8-2-6-49-4" apply_with_weight="true">
		</inkscape:path-effect>
	
		<inkscape:path-effect  weight="33.333333" apply_no_weight="true" steps="2" is_visible="true" effect="bspline" only_selected="false" helper_size="0" id="path-effect1204-5-60-497-0-5-1-5-2" apply_with_weight="true">
		</inkscape:path-effect>
	
		<inkscape:path-effect  weight="33.333333" apply_no_weight="true" steps="2" is_visible="true" effect="bspline" only_selected="false" helper_size="0" id="path-effect1208-5-8-2-9-56-2-2-7" apply_with_weight="true">
		</inkscape:path-effect>
	
		<inkscape:path-effect  weight="33.333333" apply_no_weight="true" steps="2" is_visible="true" effect="bspline" only_selected="false" helper_size="0" id="path-effect1212-9-57-4-5-4-9-1-2" apply_with_weight="true">
		</inkscape:path-effect>
	
		<inkscape:path-effect  weight="33.333333" apply_no_weight="true" steps="2" is_visible="true" effect="bspline" only_selected="false" helper_size="0" id="path-effect1216-0-22-53-2-26-2-9-4" apply_with_weight="true">
		</inkscape:path-effect>
	
		<inkscape:path-effect  weight="33.333333" apply_no_weight="true" steps="2" is_visible="true" effect="bspline" only_selected="false" helper_size="0" id="path-effect1220-7-50-12-0-8-4-0-4" apply_with_weight="true">
		</inkscape:path-effect>
	
		<inkscape:path-effect  weight="33.333333" apply_no_weight="true" steps="2" is_visible="true" effect="bspline" only_selected="false" helper_size="0" id="path-effect1224-5-24-6-0-4-9-46-9" apply_with_weight="true">
		</inkscape:path-effect>
	
		<inkscape:path-effect  weight="33.333333" apply_no_weight="true" steps="2" is_visible="true" effect="bspline" only_selected="false" helper_size="0" id="path-effect1228-4-61-58-2-2-4-81-4" apply_with_weight="true">
		</inkscape:path-effect>
</defs>
<sodipodi:namedview  units="px" inkscape:pagecheckerboard="true" fit-margin-bottom="0" fit-margin-right="0" inkscape:showpageshadow="false" inkscape:window-maximized="0" inkscape:window-y="0" inkscape:window-x="1280" inkscape:window-height="1080" inkscape:window-width="1280" inkscape:document-rotation="0" inkscape:current-layer="layer2" inkscape:document-units="mm" inkscape:pageshadow="2" inkscape:pageopacity="0" viewbox-height="0.61" viewbox-width="2.71" fit-margin-top="0" inkscape:cx="284.24752" fit-margin-left="0" scale-x="1" bordercolor="#3c3c3c" pagecolor="#ffffff" inkscape:zoom="0.49497475" borderopacity="1" borderlayer="true" showgrid="false" inkscape:cy="526.86262" id="base">
	</sodipodi:namedview>
<g id="g8070" transform="matrix(0.38777748,0,0,0.38529429,4311.3844,819.47588)" inkscape:export-ydpi="96" inkscape:export-xdpi="96">
	
		<path id="path1486-5-5-5-1-5-9-07" inkscape:export-ydpi="50" inkscape:export-xdpi="50" sodipodi:nodetypes="cccc" inkscape:connector-curvature="0" fill="none" stroke="#FFFFFF" stroke-width="15" stroke-linecap="round" stroke-linejoin="round" d="
		M-8476.819-1470.596v571.166l-301.739-572.976v571.166"/>
	
		<path id="path1908-1-5-79-2-0-88-3" inkscape:export-ydpi="50" inkscape:export-xdpi="50" sodipodi:nodetypes="ccccc" inkscape:connector-curvature="0" fill="none" stroke="#FFFFFF" stroke-width="15" stroke-linecap="round" stroke-linejoin="round" d="
		M-9537.831-811.396v-661.01l244.121,190.559l244.125-190.559v571.166"/>
	
		<path id="path1910-6-6-8-8-7-5-89-0" sodipodi:nodetypes="sssss" inkscape:connector-curvature="0" fill="none" stroke="#FFFFFF" stroke-width="15" stroke-linecap="round" stroke-linejoin="round" d="
		M-9740.204-1692.294c0,49.12-49.987,96.241-111.651,96.241c-61.66,0-111.646-47.121-111.646-96.241
		c0-49.123,49.986-96.241,111.646-96.241C-9790.191-1788.535-9740.204-1741.417-9740.204-1692.294z"/>
	
		<path id="path1942-5-1-9-0-95-4-20" sodipodi:nodetypes="cccssscc" inkscape:connector-curvature="0" fill="none" stroke="#FFFFFF" stroke-width="15" stroke-linecap="round" stroke-linejoin="round" d="
		M-9685.029-1457.069v-138.984 M-9685.029-1788.386l102.064-0.149c61.662-0.109,111.648,47.121,111.648,96.241
		s-49.984,96.241-111.648,96.241h-102.064V-1788.386z"/>
	
		<g id="g1996-8-1-58-6-6-47-6" transform="matrix(1.5113121,0,0,1.5113121,-10683.298,-1538.9225)" inkscape:export-ydpi="50" inkscape:export-xdpi="50">
		
			<path id="path1910-6-3-1-0-87-3-4-3-1" sodipodi:nodetypes="ccccscc" inkscape:connector-curvature="0" fill="none" stroke="#FFFFFF" stroke-width="15" stroke-linecap="round" stroke-linejoin="round" d="
			M970.574-62.11c-16,15.669-40.925,24.022-58.258,24.308c-40.795,0-73.874-31.179-73.874-63.68 M838.441-101.482
			c0-32.502,33.079-63.68,73.874-63.68c40.802,0,73.875,31.178,73.875,63.68H838.441z"/>
	</g>
	
		<g id="g2033-8-98-9-6-3-4-6" transform="matrix(1.5113121,0,0,1.5113121,-10703.236,-1548.1284)" inkscape:export-ydpi="50" inkscape:export-xdpi="50">
		
			<path id="path1910-6-7-3-5-2-3-7-50-4" sodipodi:nodetypes="cssc" inkscape:connector-curvature="0" fill="none" stroke="#FFFFFF" stroke-width="15" stroke-linecap="round" stroke-linejoin="round" d="
			M1036.096-95.295c0-32.502,33.074-63.68,73.875-63.68c40.802,0,73.875,31.177,73.875,63.68v523.327"/>
		
			<path id="path2028-2-0-71-7-8-4-1" sodipodi:nodetypes="ccc" inkscape:connector-curvature="0" fill="none" stroke="#FFFFFF" stroke-width="15" stroke-linecap="round" stroke-linejoin="round" d="
			M1036.096-158.877v63.582v63.778"/>
	</g>
	
		<path id="path1910-6-0-3-9-8-3-61-3-4" sodipodi:nodetypes="cccsaaaascaaassac" inkscape:connector-curvature="0" fill="none" stroke="#FFFFFF" stroke-width="15" stroke-linecap="round" stroke-linejoin="round" d="
		M-9299.559-811.393h718.795h184.017h166.232c70.005,0,138.686-6,196.256-39.786c43.976-25.81,78.255-69.775,99.636-116.064
		c31.273-67.699,34.764-146.433,34.764-221.006s-3.49-153.303-34.764-221.005c-21.381-46.289-56.804-88.401-99.636-116.061
		c-54.81-35.396-182.551-37.766-237.965-39.781c-56.472-4.998-68.717-5.183-91.991-27.092c-21.658-20.381-30.346-54.159-30.346-83.9
		c0-29.739,9.574-62.615,30.346-83.9c18.299-18.756,47.038-28.549,73.249-28.549h258.857c26.206,0,54.95,9.791,73.249,28.549
		c20.771,21.286,30.341,61.114,30.341,83.9"/>
	
		<linearGradient id="path1190-2-8-8-7-0-8-9-2-95_1_" gradientUnits="userSpaceOnUse" x1="-32461.4141" y1="7920.9902" x2="-32461.4141" y2="8018.7246" gradientTransform="matrix(1.4656 0 0 -1.4562 39395.6172 10533.7695)">
		<stop  offset="0" style="stop-color:#F7DB2E"/>
		<stop  offset="0.5" style="stop-color:#82C558"/>
		<stop  offset="1" style="stop-color:#127E7A"/>
	</linearGradient>
	
		<path id="path1190-2-8-8-7-0-8-9-2-95" sodipodi:nodetypes="cccccccccccccccccccccccscccccccc" inkscape:connector-curvature="0" inkscape:path-effect="#path-effect1192-2-82-04-8-9-1-8-6-7-7" inkscape:original-d="m -10466.307,-1440.3851 v 186.3901 c 0,0 6.386,6.6721 9.578,10.0095 7.217,2.4116 14.433,4.8237 21.648,7.2369 8.221,-0.8049 16.442,-1.6091 24.661,-2.4123 3.563,-3.2899 7.126,-6.5798 10.687,-9.8684 1.422,-1.6402 2.844,-3.2806 4.265,-4.9208 1.188,0.073 2.376,0.146 3.563,0.2194 6.217,0.4697 12.442,0.9403 18.662,1.4107 3.927,-6.1398 7.856,-12.2817 11.783,-18.4209 -1.669,-6.4074 -3.336,-12.8114 -5.006,-19.2239 1.188,-0.2196 2.376,-0.4389 3.562,-0.6577 5.38,-4.2043 10.765,-8.413 16.153,-12.6237 0.183,-4.5356 0.366,-9.0652 0.548,-13.5961 -1.844,-4.6106 -5.533,-13.8338 -5.533,-13.8338 l -1.097,-1.0966 c 0,0 6.357,-7.7075 9.534,-11.5597 -1.644,-5.9201 -3.288,-11.8426 -4.933,-17.7631 -2.35,-1.2537 -4.7,-2.5068 -7.052,-3.7605 1.347,-7.6932 2.694,-15.3828 4.04,-23.0697 -2.106,-3.4878 -4.213,-6.9782 -6.32,-10.4664 -4.225,-1.5935 -8.452,-3.1869 -12.679,-4.7801 -2.815,-1.5667 -5.631,-3.1328 -8.447,-4.6989 -0.711,-7.5867 -1.423,-15.173 -2.136,-22.7591 -5.265,-1.874 -10.53,-3.7476 -15.797,-5.6212 -4.313,1.7139 -8.625,3.4271 -12.941,5.1423 -3.517,-2.3102 -7.033,-4.6197 -10.546,-6.9263 -2.043,-2.0858 -4.075,-4.16 -6.135,-6.2619 -4.54,-1.2937 -9.012,-2.5678 -13.524,-3.8529 -4.452,-0.195 -8.884,-0.3889 -13.345,-0.5837 -3.889,0.5467 -7.753,1.0899 -11.638,1.6365 -0.519,2.2404 -1.555,6.7123 -1.555,6.7123 z" fill="url(#path1190-2-8-8-7-0-8-9-2-95_1_)" stroke="#FFFFFF" stroke-miterlimit="10" d="
		M-8346.974-1456.412v514.247c8.809,9.208,17.613,18.411,31.973,26.342c14.359,7.933,34.27,14.587,55.565,16.807
		c21.29,2.218,43.976,0,60.229-5.649c16.254-5.647,26.08-14.724,32.956-21.524c6.875-6.8,10.798-11.327,14.395-13.489
		c3.602-2.159,6.88-1.959,17.095-1.209c10.214,0.748,27.385,2.048,41.387-5.771c13.997-7.824,24.836-24.768,27.948-42.077
		c3.118-17.309-1.48-34.978-2.15-44.127c-0.66-9.145,2.614-9.748,11.675-15.851c9.062-6.104,23.915-17.712,31.601-29.781
		c7.687-12.065,8.189-24.56,5.898-37.172c-2.292-12.612-7.384-25.336-12.471-38.059l-3.022-3.021
		c8.764-10.635,17.538-21.27,19.648-34.749c2.115-13.479-2.423-29.817-7.933-39.717c-5.511-9.895-11.993-13.357-13.378-25.696
		c-1.385-12.343,2.332-33.558,1.284-48.975c-1.053-15.415-6.87-25.044-15.604-32.055c-8.729-7.011-20.394-11.406-30.109-15.765
		c-9.716-4.357-17.482-8.678-22.349-21.306c-4.865-12.627-6.829-33.558-15.079-46.606c-8.24-13.051-22.771-18.221-35.982-18.442
		c-13.217-0.22-25.113,4.507-35.917,3.685c-10.809-0.819-20.51-7.193-28.171-13.251c-7.665-6.058-13.271-11.783-22.378-16.467
		c-9.106-4.681-21.446-8.199-33.812-10.24c-12.365-2.043-24.589-2.578-36.108-2.091c-11.519,0.484-22.182,1.982-28.256,5.827
		C-8344.113-1468.751-8345.544-1462.587-8346.974-1456.412L-8346.974-1456.412z"/>
	
		<path id="path1190-2-8-8-7-0-8-9-1" sodipodi:nodetypes="ccaccccccccccccccccccccsccccccccc" inkscape:connector-curvature="0" inkscape:path-effect="#path-effect1192-2-82-04-8-9-1-8-68-7" inkscape:original-d="m -10464.576,-1422.97 v 153.4443 c 0,0 0,13.1241 0,19.6865 3.192,1.9582 6.385,3.9167 9.578,5.8754 7.217,2.4116 14.432,4.8237 21.647,7.2369 8.221,-0.8049 16.443,-1.6091 24.662,-2.4123 3.563,-3.2899 7.126,-6.5798 10.687,-9.8684 1.421,-1.6402 2.843,-3.2806 4.265,-4.9208 1.188,0.073 2.376,0.146 3.562,0.2194 6.217,0.4697 12.443,0.9403 18.662,1.4107 3.928,-6.1398 7.856,-12.2817 11.783,-18.4209 -1.668,-6.4074 -3.336,-12.8114 -5.006,-19.2239 1.189,-0.2196 2.376,-0.4389 3.563,-0.6577 5.379,-4.2043 10.765,-8.413 16.153,-12.6237 0.183,-4.5356 0.365,-9.0652 0.547,-13.5961 -2.209,-4.9761 -6.629,-14.9304 -6.629,-14.9304 0,0 6.356,-7.7075 9.533,-11.5597 -1.644,-5.9201 -3.288,-11.8426 -4.932,-17.7631 -2.351,-1.2537 -4.701,-2.5068 -7.053,-3.7605 1.348,-7.6932 2.694,-15.3828 4.041,-23.0697 -2.106,-3.4878 -4.214,-6.9782 -6.32,-10.4664 -4.226,-1.5935 -8.452,-3.1869 -12.679,-4.7801 -2.816,-1.5667 -5.631,-3.1328 -8.447,-4.6989 -0.712,-7.5867 -1.424,-15.173 -2.136,-22.7591 -5.266,-1.874 -10.531,-3.7476 -15.797,-5.6212 -4.314,1.7139 -8.626,3.4271 -12.942,5.1423 -3.516,-2.3102 -7.033,-4.6197 -10.545,-6.9263 -2.009,-1.6728 -4.007,-3.3361 -6.033,-5.0217 -4.566,-1.4229 -9.064,-2.8243 -13.603,-4.2378 -4.459,-0.1878 -8.9,-0.3745 -13.368,-0.562 -3.89,0.8397 -7.758,1.6752 -11.639,2.5135 -0.518,2.0427 -1.554,6.128 -1.554,6.128 z" fill="none" stroke="#FFFFFF" stroke-width="14" stroke-linecap="round" stroke-linejoin="round" d="
		M-8342.204-1408.367v423.351c0,18.107,0,36.212,4.407,47.965c4.401,11.755,13.211,17.159,27.57,23.187
		c14.36,6.032,34.266,12.688,55.561,14.906c21.29,2.218,43.98,0,60.229-5.647c16.253-5.647,26.09-14.726,32.96-21.526
		c6.875-6.798,10.799-11.322,14.395-13.484c3.602-2.162,6.881-1.959,17.09-1.212c10.215,0.75,27.39,2.048,41.387-5.774
		c14.002-7.824,24.836-24.768,27.954-42.074c3.117-17.309-1.486-34.977-2.15-44.122c-0.66-9.15,2.613-9.758,11.67-15.856
		c9.061-6.103,23.919-17.717,31.6-29.781c7.687-12.065,8.19-24.565,5.395-37.679c-2.79-13.114-8.89-26.846-14.989-40.579
		c8.77-10.63,17.538-21.265,19.653-34.744c2.11-13.484-2.423-29.822-7.933-39.717s-11.997-13.352-13.378-25.696
		c-1.385-12.344,2.332-33.558,1.279-48.975c-1.042-15.418-6.864-25.047-15.599-32.055c-8.733-7.01-20.394-11.406-30.109-15.765
		c-9.716-4.359-17.482-8.681-22.348-21.308c-4.865-12.625-6.83-33.558-15.075-46.606c-8.25-13.051-22.775-18.219-35.992-18.439
		c-13.217-0.223-25.113,4.507-35.917,3.685c-10.804-0.821-20.504-7.193-28.125-12.683c-7.615-5.49-13.126-10.077-22.222-14.366
		c-9.092-4.289-21.502-8.154-33.912-10.364c-12.416-2.21-24.67-2.725-36.199-1.825c-11.524,0.9-22.202,3.206-28.267,7.181
		c-6.068,3.974-7.499,9.609-8.93,15.246v44.758H-8342.204z"/>
	
		<path id="path1198-1-7-1-8-23-1-32-1" sodipodi:nodetypes="ccccc" inkscape:connector-curvature="0" inkscape:path-effect="#path-effect1200-8-8-45-8-2-6-49-4" inkscape:original-d="m -10398.645,-1429.3037 c -2.396,0.5061 -4.788,1.0116 -7.188,1.5191 -4.642,0.9948 -9.268,1.9863 -13.903,2.98 -1.833,2.7714 -3.664,5.5413 -5.498,8.3135 0.08,0.8192 0.165,1.6384 0.247,2.4576" fill="none" stroke="#FFFFFF" stroke-width="4.0603" stroke-linecap="round" stroke-linejoin="round" d="
		M-8160.298-1425.838c-6.608,1.396-13.212,2.791-22.922,4.861c-9.716,2.073-22.479,4.811-31.399,10.001
		c-8.925,5.196-13.977,12.835-16.395,17.79s-2.186,7.216-1.959,9.474"/>
	
		<path id="path1202-4-02-6-4-91-82-9-9" sodipodi:nodetypes="ccc" inkscape:connector-curvature="0" inkscape:path-effect="#path-effect1204-5-60-497-0-5-1-5-2" inkscape:original-d="m -10462.168,-1384.1825 c 3.631,-4.2541 7.261,-8.5073 10.891,-12.76 5.947,1.6768 11.895,3.3543 17.841,5.0315" fill="none" stroke="#FFFFFF" stroke-width="4.0603" stroke-linecap="round" stroke-linejoin="round" d="
		M-8335.561-1301.351c10.022-11.735,20.036-23.47,33.247-27.024s29.621,1.074,46.025,5.703"/>
	
		<path id="path1206-3-4-5-1-1-2-5-6" sodipodi:nodetypes="cccccsc" inkscape:connector-curvature="0" inkscape:path-effect="#path-effect1208-5-8-2-9-56-2-2-7" inkscape:original-d="m -10361.419,-1395.1679 c -4.297,-2.0034 -8.593,-4.0059 -12.89,-6.0087 -2.7,-0.6154 -5.4,-1.2305 -8.1,-1.8453 -4.995,0.1542 -9.99,0.3087 -14.986,0.4634 -3.041,3.403 -6.081,6.8059 -9.123,10.2099 -1.014,3.6097 -2.029,7.2188 -3.045,10.8292 0.453,1.9219 0.905,3.8439 1.357,5.7659" fill="none" stroke="#FFFFFF" stroke-width="4.0603" stroke-linecap="round" stroke-linejoin="round" d="
		M-8057.589-1331.66c-11.856-5.525-23.708-11.051-33.363-14.66c-9.65-3.614-17.1-5.31-27.718-5.948
		c-10.612-0.631-24.393-0.208-35.483,4.702c-11.086,4.907-19.472,14.292-25.072,23.967c-5.597,9.677-8.396,19.635-9.167,27.27
		c-0.781,7.63,0.468,12.933,1.717,18.235"/>
	
		<path id="path1210-3-03-6-6-0-1-82-5" sodipodi:nodetypes="ccccc" inkscape:connector-curvature="0" inkscape:path-effect="#path-effect1212-9-57-4-5-4-9-1-2" inkscape:original-d="m -10353.19,-1336.9531 c -2.295,2.6262 -4.588,5.251 -6.884,7.8788 -2.096,1.6977 -4.19,3.394 -6.286,5.0913 -4.634,1.4865 -9.269,2.9732 -13.904,4.4604 -1.353,-0.024 -2.705,-0.048 -4.059,-0.072" fill="none" stroke="#FFFFFF" stroke-width="4.0603" stroke-linecap="round" stroke-linejoin="round" d="
		M-8034.889-1171.044c-6.331,7.244-12.657,14.488-18.717,20.454c-6.059,5.967-11.836,10.645-21.124,15.04
		c-9.282,4.39-22.07,8.496-30.331,10.513c-8.26,2.018-11.987,1.952-15.725,1.886"/>
	
		<path id="path1214-8-85-3-2-0-9-2-2" sodipodi:nodetypes="cccccc" inkscape:connector-curvature="0" inkscape:path-effect="#path-effect1216-0-22-53-2-26-2-9-4" inkscape:original-d="m -10432.822,-1260.9301 c -0.163,-1.1655 -0.325,-2.331 -0.489,-3.4967 1.078,-3.8091 2.156,-7.6178 3.232,-11.4262 3.835,-2.7983 7.669,-5.5957 11.502,-8.3926 4.623,-1.0833 9.247,-2.1664 13.87,-3.2488 2.368,0.089 4.736,0.18 7.104,0.2708" fill="none" stroke="#FFFFFF" stroke-width="4.0603" stroke-linecap="round" stroke-linejoin="round" d="
		M-8254.596-961.299c-0.448-3.216-0.896-6.43,0.363-13.294c1.259-6.864,4.24-17.369,11.015-26.486
		c6.774-9.112,17.352-16.83,29.012-22.183c11.665-5.348,24.428-8.339,34.068-9.707c9.646-1.369,16.178-1.12,22.711-0.872"/>
	
		<path id="path1218-5-7-6-4-0-5-8-5" inkscape:connector-curvature="0" inkscape:path-effect="#path-effect1220-7-50-12-0-8-4-0-4" inkscape:original-d="m -10410.458,-1286.6822 c -0.676,-4.9638 -1.353,-10.1077 -2.03,-15.1607 -2.592,-3.3392 -5.186,-6.6785 -7.78,-10.017 -3.946,-2.0761 -7.893,-4.1517 -11.84,-6.2267 -4.059,-0.3616 -8.118,-0.7226 -12.179,-1.0829" fill="none" stroke="#FFFFFF" stroke-width="4.0603" stroke-linecap="round" stroke-linejoin="round" d="
		M-8192.891-1032.346c-1.833-13.697-3.732-27.885-8.245-39.463c-4.508-11.578-11.665-20.789-20.69-28.261
		c-9.017-7.467-19.905-13.195-30.951-16.556s-22.242-4.354-33.449-5.353"/>
	
		<path id="path1222-8-3-25-7-6-2-7-8" inkscape:connector-curvature="0" inkscape:path-effect="#path-effect1224-5-24-6-0-4-9-46-9" inkscape:original-d="m -10438.301,-1357.2564 c 5.751,2.2555 11.728,4.5115 17.59,6.7682 6.316,0.1799 12.631,0.3604 18.945,0.5414 4.51,-3.0685 9.021,-6.137 13.531,-9.2047 1.917,-4.3315 3.834,-8.6638 5.751,-12.995 0.339,-1.6246 0.677,-3.2492 1.015,-4.8731" fill="none" stroke="#FFFFFF" stroke-width="4.0603" stroke-linecap="round" stroke-linejoin="round" d="
		M-8269.711-1227.064c15.906,6.124,32.356,12.455,49.158,15.811c16.803,3.366,34.225,3.863,49.159-0.122
		c14.929-3.984,27.374-12.45,36.244-22.654c8.864-10.214,14.153-22.162,17.266-30.38c3.107-8.217,4.045-12.698,4.977-17.179"/>
	
		<path id="path1226-7-53-75-1-6-4-59-87" sodipodi:nodetypes="ccccc" inkscape:connector-curvature="0" inkscape:path-effect="#path-effect1228-4-61-58-2-2-4-81-4" inkscape:original-d="m -10413.606,-1350.4882 c -0.265,3.27 -0.531,6.54 -0.797,9.8119 2.296,2.0755 4.59,4.1506 6.884,6.2267 3.609,1.241 7.218,2.4825 10.827,3.7246 2.03,-6e-4 4.06,-6e-4 6.089,0" fill="none" stroke="#FFFFFF" stroke-width="4.0603" stroke-linecap="round" stroke-linejoin="round" d="
		M-8201.574-1208.389c-0.735,9.023-1.471,18.046,1.335,25.422c2.795,7.375,9.127,13.104,17.271,17.681
		c8.145,4.573,18.103,7.999,25.879,9.713c7.782,1.713,13.378,1.713,18.979,1.713"/>
</g>
<g id="Слой_1-2">
	<path fill="#FFFFFF" stroke="#FFFFFF" stroke-miterlimit="10" d="M326.305,302.656v-24.481H229.52
		c0.554-5.321-0.204-10.698-2.205-15.659c-2.747-6.497-6.377-14.216-9.023-19.671c5.474-6.335,10.708-15.939,9.785-27.208
		c-0.662-8.146-3.144-16.039-7.259-23.099c6.016-11.469,16.041-36.473,1.725-59.711c-11.749-19.129-30.958-24.643-41.345-26.207
		c-14.297-2.165-27.59,0.361-34.688,6.576c-4.281,3.733-7.931,8.135-10.807,13.034c-11.77-2.326-27.891-0.843-39.079,14.557
		c-6.764,9.318-9.639,20.901-8.021,32.302c-18.274,7.356-30.688,24.57-31.9,44.232c-1.004,8.651,0.019,17.417,2.987,25.604
		c-15.099,12.913-32.582,39.38-24.662,77.477c1.58,8.7,3.908,17.245,6.957,25.543c-5.072,8.543-12.973,24.785-10.526,41.666
		c2.005,13.455,9.805,24.063,14.998,29.875c-2.006,11.65-4.191,37.115,12.391,55.12c13.675,14.777,32.543,17.264,45.135,16.964
		c5.093,14.034,18.527,40.101,49.205,43.81c4.033,0.481,8.089,0.736,12.15,0.763c33.847,0,55.04-18.447,63.301-35.73
		c4.503-9.592,7.319-19.889,8.32-30.437h89.347v-24.481h-89.768c-0.2-1.385-0.3-2.708-0.541-4.012
		c-3.048-19.248-7.739-30.256-12.712-36.293c2.192-6.541,3.875-13.246,5.033-20.049h97.987v-24.643h-97.146v-0.18
		c-1.896-13.143-6.206-25.82-12.713-37.396c2.849-5.691,4.403-11.942,4.552-18.305L326.305,302.656z M77.334,219.086
		c1.403-16.423,11.569-23.58,18.587-26.588c11.269,0,24.883,32.081,42.447,26.588c-10.666-8.964-17.564-16.703-27.85-42.829
		c-0.181-0.481-4.933-12.592,2.827-23.299c6.797-9.363,17.163-7.058,21.474-5.574c11.188,6.276,6.017,47.059,20.212,41.104
		c14.195-5.956,35.249-18.046,29.755-30.758c-6.195,0.701-19.269,24.32-29.233,14.296c-8.361-8.361-6.457-24.062-4.011-31.319
		c1.912-4.553,4.824-8.616,8.521-11.89c1.263-0.983,8.321-3.349,18.828-1.564c6.656,1.144,18.787,4.772,25.946,16.422
		c11.709,19.107-4.673,43.089-4.813,43.289c-2.688,3.889-2.44,9.095,0.602,12.712c3.902,5.103,6.273,11.208,6.838,17.605
		c0.661,8.381-7.9,15.018-8.021,15.018c-5.273,0.883-11.389-11.228-11.389-11.228c0.824,8.613,3.669,16.912,8.302,24.221
		c0,0,7.358,14.737,11.789,25.244c1.845,4.392,0.16,10.967-2.787,16.843c-0.011-0.053-0.011-0.108,0-0.161
		c-6.897,7.499-17.264,9.224-25.585,3.75s-7.639-11.689-11.689-31.521c-0.533-2.612-1.203-5.196-2.005-7.739l0,0
		c0,0-5.595-21.734-2.727-32.08c2.005-7.079,6.797-13.536,19.328-12.393c-6.736-11.729-20.974-9.544-27.729-0.48
		c-6.016,8.2-5.855,20.471-3.79,26.387c-14.036-7.68-24.182,3.89-24.182,3.89s12.693,0.28,20.292,8.341
		c3.81,4.011,6.015,9.083,7.72,24.061c1.704,14.979,11.228,31.1,23.018,35.109c6.882,2.381,14.169,3.363,21.435,2.888
		c-0.836,2.827-2.057,5.526-3.629,8.02c-2.347,3.522-2.347,8.108,0,11.631c6.542,10.354,10.845,21.967,12.631,34.086
		c1.726,13.031-2.445,28.07-5.192,36.09c-15.699-2.586-33.004-23.9-35.129-38.838c-0.287-2.75-1.025-5.432-2.186-7.939h0.28
		c9.766-1.023,11.068-28.332,11.068-28.332s-13.133,23.139-33.465,14.295c-11.528-5.193-14.396-25.023-15.539-36.813
		c-1.103-11.469,6.997-26.065,7.438-27.008c-0.762,0.461-13.313,8.2-17.223,14.617c-3.91,6.416-10.026,8.38-23.3,5.213
		c-13.273-3.168-21.273-28.973-13.936-39.439c0.204-0.311,0.392-0.633,0.563-0.963c0.191-0.203,0.373-0.418,0.54-0.642
		c4.633-3.528,24.302,6.256,36.093-5.354c-27.31,0-38.538-8.722-38.538-8.722C78.657,235.086,76.451,229.431,77.334,219.086z
		 M209.91,489.49c-6.216,13.052-24.062,27.007-54.138,23.338c-23.299-2.867-31.7-27.63-33.625-34.567
		c4.464-5.286,8.552-10.882,12.231-16.742c-8.902,2.93-17.976,5.313-27.169,7.139c-7.64,0.62-23.439,0.46-33.184-10.025
		c-8.923-9.745-8.923-24.423-7.78-33.425c12.531,4.45,25.144,3.689,35.871-7.76c-12.492,0.381-27.35-2.566-39.079-12.572
		c-3.008-3.047-9.785-10.768-11.068-20.051c-1.123-7.818,1.784-16.461,4.992-23.039c5.314,11.189,21.775,20.473,34.809,28.693
		c14.558,9.205,34.788,11.148,35.63,23.561c1.885,26.627-35.108,35.91-35.108,35.91c12.952-0.121,33.164-3.047,39.399-10.227
		c7.7-0.761,20.051,2.888,29.676,10.187c11.87,9.023,18.206,28.953,18.206,28.953c3.248-13.013-5.755-29.896-11.489-39.501
		c-5.734-9.603-6.015-28.371-6.015-28.371s-8.643,12.271-7.479,22.457c-3.028-3.63-10.707-4.691-16.502-4.992
		c1.98-5.723,2.791-11.783,2.387-17.824c-0.342-5.254-6.758-11.49-15.239-17.445c13.013-3.709,21.835-24.863,9.765-29.414
		c0,4.01-6.757,21.395-34.647,14.977c-1.604-0.801-3.128-1.523-4.572-2.225c-13.431-6.486-24.398-17.152-31.259-30.396
		c-1.104-2.447-2.005-4.732-2.968-7.18c-0.762-1.643-3.027-7.258-6.275-22.857c-4.271-20.612,0.922-35.59,7.499-45.596
		c-0.963,16.884,15.62,30.778,26.969,35.952c12.632,5.714,26.467-3.188,27.309,4.31c0.842,7.5,4.01,9.464,1.143,17.826
		c-2.867,8.361-20.05,12.352-39.379,2.305c-0.581,18.047,42.547,19.25,49.164,11.49c2.326,7.5,18.707,7.5,26.207,13.533
		c7.498,6.037,9.765,32.764,18.667,39.982c8.902,7.217,27.629,15.238,37.395,26.746c0.28,0.303,0.502,0.563,0.722,0.844
		c2.111,6.251,3.622,12.69,4.512,19.229C218.352,460.074,216.446,475.815,209.91,489.49z"/>
	<polygon fill="#FFFFFF" stroke="#FFFFFF" stroke-miterlimit="10" points="394.578,276.651 394.578,276.712 376.211,276.712 
		376.211,257.122 	"/>
	<polygon fill="#FFFFFF" stroke="#FFFFFF" stroke-miterlimit="10" points="369.936,282.986 394.578,282.986 394.578,318.537 
		342.747,318.537 342.747,257.122 369.936,257.122 	"/>
	<polygon fill="#FFFFFF" stroke="#FFFFFF" stroke-miterlimit="10" points="394.578,360.684 394.578,360.764 376.211,360.764 
		376.211,341.155 	"/>
	<polygon fill="#FFFFFF" stroke="#FFFFFF" stroke-miterlimit="10" points="369.936,367.022 394.578,367.022 394.578,402.59 
		342.747,402.59 342.747,341.155 369.936,341.155 	"/>
	<polygon fill="#FFFFFF" stroke="#FFFFFF" stroke-miterlimit="10" points="394.578,445.198 394.578,445.278 376.211,445.278 
		376.211,425.668 	"/>
	<polygon fill="#FFFFFF" stroke="#FFFFFF" stroke-miterlimit="10" points="369.936,451.533 394.578,451.533 394.578,487.084 
		342.747,487.084 342.747,425.668 369.936,425.668 	"/>
	<path fill="#FFFFFF" stroke="#FFFFFF" stroke-miterlimit="10" d="M317.142,165.229h-29.836l-1.223-3.709
		c-0.629-1.91-2.422-3.191-4.432-3.169h-22.396c-2.005,0-3.78,1.298-4.391,3.208l-1.184,3.67h-3.669
		c-4.034,0-7.309,3.264-7.318,7.298v44.232c-0.044,4.041,3.196,7.354,7.237,7.397c0.027,0.001,0.054,0.001,0.081,0.001h67.13
		c4.02,0,7.278-3.259,7.278-7.278c0-0.006,0-0.014,0-0.02v-44.333c0.012-4.021-3.238-7.287-7.258-7.298
		C317.155,165.229,317.148,165.229,317.142,165.229z M247.846,176.919l4.472-6.016h62.418l3.309,6.016H247.846z"/>
	<polygon fill="#FFFFFF" stroke="#FFFFFF" stroke-miterlimit="10" points="376.011,183.856 376.011,242.805 351.528,242.805 
		351.528,208.338 330.636,208.338 330.636,183.856 	"/>
</g>
<path id="path172" inkscape:connector-curvature="0" fill="#FFFFFF" stroke="#FFFFFF" stroke-miterlimit="10" d="M437.03,470.079
	c-0.1-9.52-0.113-27.222-0.038-39.343l0.122-22.039l19.435-18.238c10.687-10.037,19.439-18.363,19.439-18.5
	c0.008-0.145-8.703-8.41-19.364-18.381l-19.377-18.123l-0.069-39.253c-0.041-21.591-0.014-39.324,0.069-39.401
	c0.194-0.188,122.894,114.317,122.919,114.711c0.017,0.213-112.941,106.693-121.495,114.521l-1.484,1.357L437.03,470.079z"/>
</svg>
